# xmcd
#
# Track frame offsets:
#	150
#	28155
#	58602
#	80542
#	117362
#	156852
#	186857
#	206097
#
# Disc length: 3124 seconds
#
# Revision: 1
# Processed by: cddbd v1.5.1PL0 Copyright (c) Steve Scherf et al.
# Submitted via: CDex 1.50Beta5
#
DISCID=6c0c3208
DTITLE=あがた森魚 - 蓄音盤
DYEAR=1900
DGENRE=Folk
TTITLE0=冬がくる〜冬の祈り
TTITLE1=神様なんているのかい
TTITLE2=漆黒の雨
TTITLE3=俺にとって俺とは何か
TTITLE4=ぼくの楽曲
TTITLE5=青い華燭
TTITLE6=もてない男たちのうた
TTITLE7=ハッティキャロルの淋しい死
EXTD=
EXTT0=
EXTT1=
EXTT2=
EXTT3=
EXTT4=
EXTT5=
EXTT6=
EXTT7=
PLAYORDER=
